<svg xmlns="http://www.w3.org/2000/svg" viewBox="0 0 2400 1600" role="img"><rect width="100%" height="100%" fill="#f4f2ee"/><style>text{font-family:Arial,Helvetica,sans-serif;fill:#343638}.hair{stroke:#343638;stroke-width:2;fill:none}.muted{opacity:.34}</style><g style="color:#343638"><defs><g id="mark" fill="currentColor"><path d="M0 88a56 56 0 0 1 56-56h16v56h56V32l44 44h28a56 56 0 0 1 56 56h40a56 56 0 0 1 56-56h12V32h44l44 44v68H56A56 56 0 0 1 0 88Z"/><rect x="300" y="0" width="52" height="32" rx="16"/><path d="M364 0l44 44h-44z"/></g></defs><g transform="translate(120 120) scale(1.25)"><use href="#mark"/></g><text x="2250" y="150" text-anchor="end" font-size="24" letter-spacing="5">NOGHTEH DESIGN HOUSE</text><text x="90" y="785" font-size="360" font-weight="700" letter-spacing="-25">NOGHTEH</text><line class="hair" x1="110" y1="875" x2="2290" y2="875"/><text x="110" y="980" font-size="30" letter-spacing="6">POINT</text><text x="720" y="980" font-size="30" letter-spacing="6">PRECISION</text><text x="1430" y="980" font-size="30" letter-spacing="6">POSSIBILITY</text><circle cx="150" cy="1270" r="92" fill="currentColor"/><path d="M610 1178h184v184H610z" fill="currentColor" opacity=".65"/><path d="M1110 1362V1178h184z" fill="currentColor"/><path d="M1610 1178h184a92 92 0 0 1-184 0z" fill="currentColor" opacity=".42"/><path d="M2070 1178a92 92 0 1 1 0 184z" fill="currentColor"/></g></svg>